#!OML:ASF I:\Actors\actors\Patient Classification 2\Patient 1\Session 1\actor1.ASF
:FULLY-SPECIFIED
:DEGREES
239
root -1.71252 18.7924 5.24155 10.9705 -10.6567 0.489036
lowerback 27.4558 -3.9441 -7.39121
upperback 6.40102 -7.06345 0.411313
thorax -6.95735 -3.31129 6.924
lowerneck -8.68549 10.731 10.4859
upperneck 1.73346 13.8866 -12.422
head 3.53978 6.61707 -4.50051
rclavicle 7.95139e-015 -5.48646e-014
rhumerus 14.4489 67.8861 -65.9757
rradius 58.2596
rwrist 5.2484
rhand -15.3668 -43.5255
rfingers 7.12502
rthumb 10.8109 -73.2273
lclavicle 7.95139e-015 -5.48646e-014
lhumerus -27.5659 -9.54503 77.0304
lradius 52.5091
lwrist -0.975122
lhand -18.1179 -24.42
lfingers 7.12502
lthumb 8.15652 5.40255
rfemur -16.0638 5.80196 15.8883
rtibia 17.846
rfoot -17.8197 -7.40232
rtoes -9.78074
lfemur -14.6151 2.41382 -11.9093
ltibia 19.6114
lfoot -18.0507 13.0319
ltoes -56.2982
240
root -1.72704 18.7905 5.24285 11.0221 -10.6684 0.472458
lowerback 27.4651 -3.96312 -7.29382
upperback 6.43095 -7.06292 0.38026
thorax -6.94543 -3.31353 6.83353
lowerneck -8.85593 10.7864 10.4443
upperneck 1.79961 13.9471 -12.2808
head 3.57918 6.64439 -4.43593
rclavicle -2.94201e-014 2.62396e-014
rhumerus 16.7135 68.0648 -64.3291
rradius 58.204
rwrist 5.17449
rhand -15.347 -43.7525
rfingers 7.12502
rthumb 10.83 -73.4533
lclavicle -2.94201e-014 2.62396e-014
lhumerus -28.4691 -10.0563 77.0638
lradius 53.6178
lwrist -0.269569
lhand -18.0774 -24.5177
lfingers 7.12502
lthumb 8.19561 5.30331
rfemur -16.155 5.76351 15.9583
rtibia 17.9367
rfoot -17.842 -7.30401
rtoes -9.53584
lfemur -14.6502 2.38126 -11.8325
ltibia 19.6124
lfoot -18.0743 13.0469
ltoes -56.1963
241
root -1.74189 18.7898 5.24278 11.1246 -10.6073 0.397394
lowerback 27.4889 -3.98662 -7.15777
upperback 6.42656 -7.05572 0.392642
thorax -6.97921 -3.30905 6.77186
lowerneck -9.0567 10.7995 10.2779
upperneck 1.89117 13.9568 -12.0399
head 3.60874 6.64753 -4.32652
rclavicle -3.73715e-014 -9.54166e-015
rhumerus 18.586 68.0894 -63.0492
rradius 58.0768
rwrist 5.25801
rhand -15.566 -43.8575
rfingers 7.12502
rthumb 10.6188 -73.5692
lclavicle -3.73715e-014 -9.54166e-015
lhumerus -29.393 -10.6058 77.153
lradius 54.7717
lwrist 0.390044
lhand -18.0274 -24.4064
lfingers 7.12502
lthumb 8.24391 5.41274
rfemur -16.2771 5.77031 16.0954
rtibia 18.0187
rfoot -17.9088 -7.33085
rtoes -9.29552
lfemur -14.7543 2.36197 -11.6818
ltibia 19.6309
lfoot -18.0966 12.9721
ltoes -56.1152
242
root -1.75573 18.7902 5.24324 11.1976 -10.5528 0.392423
lowerback 27.5366 -3.96489 -7.09689
upperback 6.39682 -7.01552 0.390425
thorax -7.05072 -3.28464 6.73096
lowerneck -9.17426 10.7655 10.1104
upperneck 1.94884 13.9086 -11.8114
head 3.6096 6.62529 -4.23166
rclavicle 1.24042e-013 -4.45278e-014
rhumerus 19.7452 67.9225 -62.4449
rradius 57.907
rwrist 5.56347
rhand -15.7546 -43.8878
rfingers 7.12502
rthumb 10.4369 -73.6087
lclavicle 1.24042e-013 -4.45278e-014
lhumerus -30.3511 -11.1785 77.3303
lradius 55.924
lwrist 0.937249
lhand -18.0636 -24.0821
lfingers 7.12502
lthumb 8.20896 5.73842
rfemur -16.3765 5.69261 16.1602
rtibia 18.0885
rfoot -17.9087 -7.33174
rtoes -9.24773
lfemur -14.8469 2.23192 -11.6088
ltibia 19.6711
lfoot -18.2024 12.9781
ltoes -55.9574
243
root -1.76835 18.7904 5.2435 11.221 -10.4951 0.432412
lowerback 27.5823 -3.9122 -7.10392
upperback 6.39654 -6.95314 0.386607
thorax -7.08277 -3.25233 6.71735
lowerneck -9.26804 10.7154 10.0247
upperneck 1.97787 13.8366 -11.6884
head 3.60994 6.58972 -4.18457
rclavicle 7.95139e-014 -1.35174e-014
rhumerus 20.7643 67.6488 -61.9847
rradius 57.6845
rwrist 5.91804
rhand -15.7456 -43.9995
rfingers 7.12502
rthumb 10.4456 -73.72
lclavicle 7.95139e-014 -1.35174e-014
lhumerus -31.2964 -11.7586 77.5728
lradius 57.1056
lwrist 1.51733
lhand -17.9742 -23.8861
lfingers 7.12502
lthumb 8.29528 5.93106
rfemur -16.4275 5.59834 16.1713
rtibia 18.1491
rfoot -17.9019 -7.32005
rtoes -9.24129
lfemur -14.9031 2.06478 -11.592
ltibia 19.7166
lfoot -18.299 13.0624
ltoes -55.8464
244
root -1.77991 18.7907 5.24324 11.2703 -10.3853 0.421195
lowerback 27.5922 -3.86359 -7.0961
upperback 6.40444 -6.88486 0.426211
thorax -7.08467 -3.21982 6.73749
lowerneck -9.24839 10.6514 10.0835
upperneck 1.93077 13.7464 -11.7545
head 3.59246 6.54484 -4.22427
rclavicle -7.95139e-015 -2.54444e-014
rhumerus 21.8495 67.3275 -61.4634
rradius 57.3658
rwrist 6.23888
rhand -15.6597 -44.1014
rfingers 7.12502
rthumb 10.5284 -73.8177
lclavicle -7.95139e-015 -2.54444e-014
lhumerus -32.2014 -12.3002 77.865
lradius 58.2937
lwrist 2.20532
lhand -17.818 -24.2545
lfingers 7.12502
lthumb 8.44602 5.55662
rfemur -16.4983 5.61431 16.2218
rtibia 18.2277
rfoot -17.9975 -7.40235
rtoes -9.21267
lfemur -15.0004 2.0533 -11.5384
ltibia 19.7618
lfoot -18.2187 13.1031
ltoes -56.0062
245
root -1.78844 18.7911 5.24281 11.3435 -10.2516 0.405499
lowerback 27.5965 -3.79822 -7.06383
upperback 6.40266 -6.78781 0.472166
thorax -7.10146 -3.17261 6.7427
lowerneck -9.24161 10.5694 10.1625
upperneck 1.88631 13.6287 -11.8216
head 3.57625 6.48609 -4.26937
rclavicle 7.39479e-014 9.54166e-015
rhumerus 22.7958 66.9145 -61.0194
rradius 57.0171
rwrist 6.49025
rhand -15.7223 -44.0577
rfingers 7.12502
rthumb 10.468 -73.7771
lclavicle 7.39479e-014 9.54166e-015
lhumerus -33.023 -12.9188 78.224
lradius 59.4153
lwrist 2.94697
lhand -17.9754 -24.9827
lfingers 7.12502
lthumb 8.29409 4.83443
rfemur -16.6015 5.61242 16.269
rtibia 18.3201
rfoot -18.1033 -7.47223
rtoes -9.18458
lfemur -15.1574 2.16857 -11.5041
ltibia 19.8326
lfoot -18.0196 13.015
ltoes -56.2296
